<svg width="38" height="38" viewBox="0 0 38 38" fill="none" xmlns="http://www.w3.org/2000/svg">
<g clip-path="url(#clip0_446_2721)">
<path d="M26.81 17.4572C26.81 19.4066 26.3508 21.5915 24.9724 22.97C23.5939 24.3485 21.4089 24.8077 19.4595 24.8077" stroke="#3F75B6" stroke-width="1.17345" stroke-linecap="round" stroke-linejoin="round"/>
<path d="M10.2709 29.3989C12.9051 31.8023 15.9213 33.152 19.4585 33.0737C26.965 32.9254 33.1378 26.9314 33.2398 19.2931C33.2668 17.4059 33.0121 15.5324 32.321 13.7808C31.63 12.0293 30.8668 10.5315 29.5648 9.1873C28.2627 7.84307 26.6821 6.24095 24.971 5.51246C23.2599 4.78397 21.3133 4.59355 19.4585 4.59375H17.621V9.1873L2.9209 18.3744L4.75841 22.0492C5.14029 22.59 5.99012 22.7161 6.59592 22.9679C7.20171 23.2197 7.78869 23.0819 8.43343 22.9679C10.9842 22.5378 15.5813 22.4323 19.4585 24.8053L13.946 32.155" stroke="#3F75B6" stroke-width="1.17345" stroke-linecap="round" stroke-linejoin="round"/>
<path d="M19.4597 16.5383C20.2209 16.5383 20.3785 16.3807 20.3785 15.6195C20.3785 14.8583 20.2209 13.7819 19.4597 13.7819C18.6985 13.7819 17.6221 14.8583 17.6221 15.6195C17.6221 16.3807 18.6985 16.5383 19.4597 16.5383Z" fill="#3F75B6"/>
</g>
<defs>
<clipPath id="clip0_446_2721">
<rect width="38" height="37.6713" fill="white" transform="translate(0 -0.000244141)"/>
</clipPath>
</defs>
</svg>
