<svg width="38" height="38" viewBox="0 0 38 38" fill="none" xmlns="http://www.w3.org/2000/svg">
<g clip-path="url(#clip0_446_2777)">
<path d="M14.8655 27.5617C13.2011 32.5111 6.60193 32.1526 6.60193 32.1526C6.60193 32.1526 6.24342 25.5534 11.1928 23.889" stroke="#3F75B6" stroke-width="1.17345" stroke-linecap="round" stroke-linejoin="round"/>
<path d="M29.5076 15.6556L19.4366 25.7266L13.0278 19.3178L23.0988 9.24681C26.8606 5.48503 30.6442 5.35043 32.2543 5.58463C32.5027 5.61778 32.9926 5.40739 33.1698 5.58463C33.3471 5.76187 33.1367 6.25173 33.1698 6.50018C33.404 8.11028 33.2694 11.8938 29.5076 15.6556Z" stroke="#3F75B6" stroke-width="1.17345" stroke-linecap="round" stroke-linejoin="round"/>
<path d="M27.633 17.4573V26.6109C27.6287 26.9238 27.8507 27.3072 27.633 27.5262L22.184 33.0184C22.036 33.1701 22.3869 32.9663 22.184 33.0184C21.9811 33.0704 21.4759 33.0808 21.2758 33.0184C21.0757 32.9559 21.4162 33.1775 21.2758 33.0184C21.1354 32.8592 20.4084 32.3137 20.3676 32.103L19.4595 25.6955" stroke="#3F75B6" stroke-width="1.17345" stroke-linecap="round" stroke-linejoin="round"/>
<path d="M21.2971 11.1214H12.1435C11.8306 11.1257 11.4472 10.9037 11.2281 11.1214L5.736 16.5704C5.58422 16.7184 5.78809 16.3675 5.736 16.5704C5.68391 16.7733 5.67359 17.2785 5.736 17.4786C5.79841 17.6787 5.57684 17.3382 5.736 17.4786C5.89517 17.619 6.44071 18.346 6.65136 18.3868L13.0589 19.2949" stroke="#3F75B6" stroke-width="1.17345" stroke-linecap="round" stroke-linejoin="round"/>
</g>
<defs>
<clipPath id="clip0_446_2777">
<rect width="38" height="37.6713" fill="white"/>
</clipPath>
</defs>
</svg>
