<svg width="38" height="38" viewBox="0 0 38 38" fill="none" xmlns="http://www.w3.org/2000/svg">
<g clip-path="url(#clip0_446_2755)">
<path d="M31.4043 19.2949V26.6454" stroke="#3F75B6" stroke-width="1.17345" stroke-linecap="round" stroke-linejoin="round"/>
<path d="M27.729 22.0513H35.0795" stroke="#3F75B6" stroke-width="1.17345" stroke-linecap="round" stroke-linejoin="round"/>
<path d="M12.1094 5.51266V11.0255" stroke="#3F75B6" stroke-width="1.17345" stroke-linecap="round" stroke-linejoin="round"/>
<path d="M9.35303 9.18791H14.8659" stroke="#3F75B6" stroke-width="1.17345" stroke-linecap="round" stroke-linejoin="round"/>
<path d="M24.9727 27.5642V32.1582" stroke="#3F75B6" stroke-width="1.17345" stroke-linecap="round" stroke-linejoin="round"/>
<path d="M22.2163 29.4018H26.8104" stroke="#3F75B6" stroke-width="1.17345" stroke-linecap="round" stroke-linejoin="round"/>
<path d="M27.1777 5.42738L5.39933 27.8243C4.94912 28.2873 4.96153 28.6915 5.39933 29.1417L8.60202 32.4354C9.03983 32.8856 9.43289 32.8984 9.8831 32.4354L31.6614 10.0385C32.1116 9.5755 32.0992 9.17127 31.6614 8.72104L28.4587 5.42738C28.0209 4.97714 27.6279 4.96438 27.1777 5.42738Z" stroke="#3F75B6" stroke-width="1.17345" stroke-linecap="round" stroke-linejoin="round"/>
<path d="M21.2974 11.9444L25.8914 16.5384" stroke="#3F75B6" stroke-width="1.17345" stroke-linecap="round" stroke-linejoin="round"/>
</g>
<defs>
<clipPath id="clip0_446_2755">
<rect width="38" height="37.6713" fill="white"/>
</clipPath>
</defs>
</svg>
