<svg width="120" height="20" viewBox="0 0 120 20" fill="none" xmlns="http://www.w3.org/2000/svg">
<path d="M39.0294 13.1921C38.3983 13.1921 37.7941 13.1036 37.2169 12.9266C36.6396 12.7419 36.1817 12.5071 35.843 12.2223L36.3626 11.0563C36.6858 11.3103 37.086 11.522 37.5632 11.6913C38.0404 11.8606 38.5291 11.9453 39.0294 11.9453C39.4527 11.9453 39.7952 11.8991 40.0569 11.8067C40.3186 11.7144 40.511 11.5912 40.6341 11.4373C40.7573 11.2757 40.8189 11.0948 40.8189 10.8947C40.8189 10.6484 40.7303 10.4521 40.5533 10.3059C40.3763 10.152 40.1454 10.0327 39.8606 9.94801C39.5836 9.85565 39.2718 9.77099 38.9255 9.69402C38.5869 9.61706 38.2444 9.52855 37.898 9.42849C37.5594 9.32074 37.2477 9.18605 36.9629 9.02442C36.6858 8.8551 36.4588 8.6319 36.2817 8.35482C36.1047 8.07775 36.0162 7.72371 36.0162 7.2927C36.0162 6.854 36.1317 6.45377 36.3626 6.09204C36.6011 5.7226 36.959 5.43013 37.4362 5.21463C37.9211 4.99143 38.533 4.87983 39.2718 4.87983C39.7567 4.87983 40.2378 4.9414 40.715 5.06455C41.1921 5.18769 41.6078 5.36471 41.9618 5.59561L41.4885 6.76164C41.1267 6.54613 40.7534 6.38835 40.3686 6.2883C39.9838 6.18055 39.6143 6.12667 39.2603 6.12667C38.8447 6.12667 38.506 6.1767 38.2444 6.27675C37.9904 6.37681 37.8018 6.50765 37.6787 6.66928C37.5632 6.83091 37.5055 7.01562 37.5055 7.22343C37.5055 7.46972 37.5902 7.66983 37.7595 7.82376C37.9365 7.97 38.1635 8.08544 38.4406 8.17011C38.7254 8.25477 39.041 8.33943 39.3873 8.42409C39.7336 8.50106 40.0761 8.58957 40.4148 8.68962C40.7611 8.78968 41.0728 8.92052 41.3499 9.08215C41.6347 9.24378 41.8617 9.46313 42.0311 9.7402C42.2081 10.0173 42.2966 10.3675 42.2966 10.7908C42.2966 11.2218 42.1773 11.622 41.9387 11.9914C41.7078 12.3532 41.3499 12.6457 40.865 12.8689C40.3802 13.0844 39.7683 13.1921 39.0294 13.1921ZM47.5715 13.1921C46.9404 13.1921 46.3593 13.0882 45.8282 12.8804C45.2972 12.6726 44.8354 12.384 44.4429 12.0145C44.0503 11.6374 43.7463 11.1987 43.5308 10.6984C43.3153 10.1905 43.2076 9.6363 43.2076 9.03597C43.2076 8.43564 43.3153 7.88533 43.5308 7.38506C43.7463 6.87709 44.0503 6.43838 44.4429 6.06895C44.8354 5.69182 45.2972 5.39935 45.8282 5.19154C46.3593 4.98373 46.9365 4.87983 47.56 4.87983C48.1911 4.87983 48.7683 4.98373 49.2917 5.19154C49.8227 5.39935 50.2845 5.69182 50.6771 6.06895C51.0696 6.43838 51.3736 6.87709 51.5891 7.38506C51.8046 7.88533 51.9124 8.43564 51.9124 9.03597C51.9124 9.6363 51.8046 10.1905 51.5891 10.6984C51.3736 11.2064 51.0696 11.6451 50.6771 12.0145C50.2845 12.384 49.8227 12.6726 49.2917 12.8804C48.7683 13.0882 48.1949 13.1921 47.5715 13.1921ZM47.56 11.876C47.9679 11.876 48.345 11.8067 48.6914 11.6682C49.0377 11.5297 49.3379 11.3334 49.5918 11.0794C49.8458 10.8177 50.0421 10.5176 50.1806 10.1789C50.3269 9.83256 50.4 9.45158 50.4 9.03597C50.4 8.62035 50.3269 8.24322 50.1806 7.90458C50.0421 7.55823 49.8458 7.25806 49.5918 7.00408C49.3379 6.7424 49.0377 6.54229 48.6914 6.40375C48.345 6.26521 47.9679 6.19594 47.56 6.19594C47.152 6.19594 46.7749 6.26521 46.4286 6.40375C46.0899 6.54229 45.7897 6.7424 45.5281 7.00408C45.2741 7.25806 45.074 7.55823 44.9277 7.90458C44.7892 8.24322 44.7199 8.62035 44.7199 9.03597C44.7199 9.44389 44.7892 9.82102 44.9277 10.1674C45.074 10.5137 45.2741 10.8177 45.5281 11.0794C45.7821 11.3334 46.0822 11.5297 46.4286 11.6682C46.7749 11.8067 47.152 11.876 47.56 11.876ZM53.5032 13.0767V4.99528H55.004V11.8067H59.2294V13.0767H53.5032ZM63.7766 13.1921C62.6683 13.1921 61.7986 12.8804 61.1674 12.257C60.544 11.6336 60.2323 10.7331 60.2323 9.55549V4.99528H61.7331V9.49776C61.7331 10.329 61.9102 10.9332 62.2642 11.3103C62.6259 11.6874 63.1339 11.876 63.7881 11.876C64.4423 11.876 64.9464 11.6874 65.3005 11.3103C65.6545 10.9332 65.8315 10.329 65.8315 9.49776V4.99528H67.3093V9.55549C67.3093 10.7331 66.9937 11.6336 66.3626 12.257C65.7392 12.8804 64.8772 13.1921 63.7766 13.1921ZM70.904 13.0767V6.26521H68.2256V4.99528H75.0832V6.26521H72.4048V13.0767H70.904ZM76.2095 13.0767V4.99528H77.7104V13.0767H76.2095ZM83.6829 13.1921C83.0518 13.1921 82.4707 13.0882 81.9397 12.8804C81.4086 12.6726 80.9468 12.384 80.5543 12.0145C80.1618 11.6374 79.8577 11.1987 79.6422 10.6984C79.4267 10.1905 79.319 9.6363 79.319 9.03597C79.319 8.43564 79.4267 7.88533 79.6422 7.38506C79.8577 6.87709 80.1618 6.43838 80.5543 6.06895C80.9468 5.69182 81.4086 5.39935 81.9397 5.19154C82.4707 4.98373 83.048 4.87983 83.6714 4.87983C84.3025 4.87983 84.8797 4.98373 85.4031 5.19154C85.9342 5.39935 86.396 5.69182 86.7885 6.06895C87.181 6.43838 87.485 6.87709 87.7005 7.38506C87.916 7.88533 88.0238 8.43564 88.0238 9.03597C88.0238 9.6363 87.916 10.1905 87.7005 10.6984C87.485 11.2064 87.181 11.6451 86.7885 12.0145C86.396 12.384 85.9342 12.6726 85.4031 12.8804C84.8797 13.0882 84.3063 13.1921 83.6829 13.1921ZM83.6714 11.876C84.0793 11.876 84.4564 11.8067 84.8028 11.6682C85.1491 11.5297 85.4493 11.3334 85.7033 11.0794C85.9573 10.8177 86.1535 10.5176 86.2921 10.1789C86.4383 9.83256 86.5114 9.45158 86.5114 9.03597C86.5114 8.62035 86.4383 8.24322 86.2921 7.90458C86.1535 7.55823 85.9573 7.25806 85.7033 7.00408C85.4493 6.7424 85.1491 6.54229 84.8028 6.40375C84.4564 6.26521 84.0793 6.19594 83.6714 6.19594C83.2635 6.19594 82.8863 6.26521 82.54 6.40375C82.2013 6.54229 81.9012 6.7424 81.6395 7.00408C81.3855 7.25806 81.1854 7.55823 81.0392 7.90458C80.9006 8.24322 80.8314 8.62035 80.8314 9.03597C80.8314 9.44389 80.9006 9.82102 81.0392 10.1674C81.1854 10.5137 81.3855 10.8177 81.6395 11.0794C81.8935 11.3334 82.1936 11.5297 82.54 11.6682C82.8863 11.8067 83.2635 11.876 83.6714 11.876ZM89.6146 13.0767V4.99528H90.8499L95.9181 11.2179H95.3062V4.99528H96.7955V13.0767H95.5602L90.492 6.854H91.1039V13.0767H89.6146Z" fill="#F4863B"/>
<path d="M36.2636 17.9084V15.8106H35.4522V15.5995H37.3191V15.8106H36.5077V17.9084H36.2636ZM41.0604 16.6319H42.2808V16.8397H41.0604V16.6319ZM41.0868 17.6973H42.4754V17.9084H40.8427V15.5995H42.426V15.8106H41.0868V17.6973ZM47.1791 17.9282C47.0054 17.9282 46.8449 17.8997 46.6975 17.8425C46.5502 17.7831 46.4226 17.7006 46.3149 17.5951C46.2071 17.4895 46.1225 17.3653 46.0609 17.2224C46.0015 17.0794 45.9718 16.9233 45.9718 16.754C45.9718 16.5846 46.0015 16.4285 46.0609 16.2856C46.1225 16.1426 46.2071 16.0184 46.3149 15.9128C46.4248 15.8073 46.5535 15.7259 46.7008 15.6687C46.8482 15.6094 47.0087 15.5797 47.1824 15.5797C47.3495 15.5797 47.5068 15.6083 47.6541 15.6655C47.8014 15.7204 47.9257 15.804 48.0268 15.9161L47.8718 16.0712C47.7772 15.9744 47.6728 15.9051 47.5584 15.8634C47.4441 15.8194 47.3209 15.7974 47.189 15.7974C47.0505 15.7974 46.9218 15.8216 46.8031 15.87C46.6843 15.9161 46.581 15.9832 46.493 16.0712C46.4051 16.1569 46.3358 16.2581 46.2852 16.3746C46.2368 16.489 46.2126 16.6154 46.2126 16.754C46.2126 16.8925 46.2368 17.02 46.2852 17.1366C46.3358 17.2509 46.4051 17.3521 46.493 17.4401C46.581 17.5258 46.6843 17.5929 46.8031 17.6413C46.9218 17.6874 47.0505 17.7105 47.189 17.7105C47.3209 17.7105 47.4441 17.6885 47.5584 17.6446C47.6728 17.6006 47.7772 17.5302 47.8718 17.4335L48.0268 17.5885C47.9257 17.7006 47.8014 17.7853 47.6541 17.8425C47.5068 17.8997 47.3484 17.9282 47.1791 17.9282ZM53.3696 15.5995H53.6104V17.9084H53.3696V15.5995ZM51.9249 17.9084H51.6808V15.5995H51.9249V17.9084ZM53.3927 16.843H51.8985V16.6286H53.3927V16.843ZM57.4976 17.9084V15.5995H57.6988L59.292 17.605H59.1865V15.5995H59.4273V17.9084H59.2261L57.6362 15.9029H57.7417V17.9084H57.4976ZM64.3239 17.9282C64.1501 17.9282 63.9885 17.8997 63.839 17.8425C63.6916 17.7831 63.563 17.7006 63.453 17.5951C63.3453 17.4873 63.2606 17.3631 63.1991 17.2224C63.1397 17.0794 63.11 16.9233 63.11 16.754C63.11 16.5846 63.1397 16.4296 63.1991 16.2889C63.2606 16.1459 63.3453 16.0217 63.453 15.9161C63.563 15.8084 63.6916 15.7259 63.839 15.6687C63.9863 15.6094 64.1479 15.5797 64.3239 15.5797C64.4976 15.5797 64.6581 15.6094 64.8054 15.6687C64.9528 15.7259 65.0803 15.8073 65.1881 15.9128C65.298 16.0184 65.3827 16.1426 65.4421 16.2856C65.5036 16.4285 65.5344 16.5846 65.5344 16.754C65.5344 16.9233 65.5036 17.0794 65.4421 17.2224C65.3827 17.3653 65.298 17.4895 65.1881 17.5951C65.0803 17.7006 64.9528 17.7831 64.8054 17.8425C64.6581 17.8997 64.4976 17.9282 64.3239 17.9282ZM64.3239 17.7105C64.4624 17.7105 64.5899 17.6874 64.7065 17.6413C64.8252 17.5929 64.9275 17.5258 65.0132 17.4401C65.1012 17.3521 65.1694 17.2509 65.2178 17.1366C65.2661 17.02 65.2903 16.8925 65.2903 16.754C65.2903 16.6154 65.2661 16.489 65.2178 16.3746C65.1694 16.2581 65.1012 16.1569 65.0132 16.0712C64.9275 15.9832 64.8252 15.9161 64.7065 15.87C64.5899 15.8216 64.4624 15.7974 64.3239 15.7974C64.1853 15.7974 64.0567 15.8216 63.9379 15.87C63.8192 15.9161 63.7158 15.9832 63.6279 16.0712C63.5421 16.1569 63.4739 16.2581 63.4234 16.3746C63.375 16.489 63.3508 16.6154 63.3508 16.754C63.3508 16.8903 63.375 17.0167 63.4234 17.1333C63.4739 17.2498 63.5421 17.3521 63.6279 17.4401C63.7158 17.5258 63.8192 17.5929 63.9379 17.6413C64.0567 17.6874 64.1853 17.7105 64.3239 17.7105ZM69.2151 17.9084V15.5995H69.4592V17.6973H70.7522V17.9084H69.2151ZM75.2554 17.9282C75.0816 17.9282 74.92 17.8997 74.7705 17.8425C74.6232 17.7831 74.4945 17.7006 74.3846 17.5951C74.2768 17.4873 74.1921 17.3631 74.1306 17.2224C74.0712 17.0794 74.0415 16.9233 74.0415 16.754C74.0415 16.5846 74.0712 16.4296 74.1306 16.2889C74.1921 16.1459 74.2768 16.0217 74.3846 15.9161C74.4945 15.8084 74.6232 15.7259 74.7705 15.6687C74.9178 15.6094 75.0794 15.5797 75.2554 15.5797C75.4291 15.5797 75.5896 15.6094 75.737 15.6687C75.8843 15.7259 76.0118 15.8073 76.1196 15.9128C76.2295 16.0184 76.3142 16.1426 76.3736 16.2856C76.4351 16.4285 76.4659 16.5846 76.4659 16.754C76.4659 16.9233 76.4351 17.0794 76.3736 17.2224C76.3142 17.3653 76.2295 17.4895 76.1196 17.5951C76.0118 17.7006 75.8843 17.7831 75.737 17.8425C75.5896 17.8997 75.4291 17.9282 75.2554 17.9282ZM75.2554 17.7105C75.3939 17.7105 75.5214 17.6874 75.638 17.6413C75.7567 17.5929 75.859 17.5258 75.9448 17.4401C76.0327 17.3521 76.1009 17.2509 76.1493 17.1366C76.1976 17.02 76.2218 16.8925 76.2218 16.754C76.2218 16.6154 76.1976 16.489 76.1493 16.3746C76.1009 16.2581 76.0327 16.1569 75.9448 16.0712C75.859 15.9832 75.7567 15.9161 75.638 15.87C75.5214 15.8216 75.3939 15.7974 75.2554 15.7974C75.1168 15.7974 74.9882 15.8216 74.8694 15.87C74.7507 15.9161 74.6473 15.9832 74.5594 16.0712C74.4736 16.1569 74.4054 16.2581 74.3549 16.3746C74.3065 16.489 74.2823 16.6154 74.2823 16.754C74.2823 16.8903 74.3065 17.0167 74.3549 17.1333C74.4054 17.2498 74.4736 17.3521 74.5594 17.4401C74.6473 17.5258 74.7507 17.5929 74.8694 17.6413C74.9882 17.6874 75.1168 17.7105 75.2554 17.7105ZM81.1593 17.9282C80.9834 17.9282 80.8206 17.8997 80.6711 17.8425C80.5238 17.7831 80.3951 17.7006 80.2852 17.5951C80.1774 17.4895 80.0928 17.3653 80.0312 17.2224C79.9718 17.0794 79.9421 16.9233 79.9421 16.754C79.9421 16.5846 79.9718 16.4285 80.0312 16.2856C80.0928 16.1426 80.1785 16.0184 80.2885 15.9128C80.3984 15.8073 80.5271 15.7259 80.6744 15.6687C80.8239 15.6094 80.9867 15.5797 81.1626 15.5797C81.3385 15.5797 81.499 15.6072 81.6442 15.6622C81.7915 15.7171 81.9168 15.8007 82.0202 15.9128L81.8685 16.0679C81.7717 15.9711 81.6651 15.9018 81.5485 15.8601C81.432 15.8183 81.3066 15.7974 81.1725 15.7974C81.0295 15.7974 80.8976 15.8216 80.7767 15.87C80.6579 15.9161 80.5535 15.9832 80.4633 16.0712C80.3753 16.1569 80.3061 16.2581 80.2555 16.3746C80.2071 16.489 80.1829 16.6154 80.1829 16.754C80.1829 16.8903 80.2071 17.0167 80.2555 17.1333C80.3061 17.2498 80.3753 17.3521 80.4633 17.4401C80.5535 17.5258 80.6579 17.5929 80.7767 17.6413C80.8976 17.6874 81.0284 17.7105 81.1692 17.7105C81.3011 17.7105 81.4254 17.6907 81.5419 17.6512C81.6607 17.6116 81.7695 17.5445 81.8685 17.45L82.007 17.6347C81.8971 17.7314 81.7684 17.8051 81.6211 17.8557C81.4737 17.904 81.3198 17.9282 81.1593 17.9282ZM81.7728 17.605V16.754H82.007V17.6347L81.7728 17.605ZM85.8314 17.9084V15.5995H86.0755V17.9084H85.8314ZM90.1781 16.6319H91.3985V16.8397H90.1781V16.6319ZM90.2045 17.6973H91.5932V17.9084H89.9604V15.5995H91.5437V15.8106H90.2045V17.6973ZM95.9371 17.9282C95.7656 17.9282 95.6007 17.9008 95.4424 17.8458C95.2862 17.7886 95.1653 17.716 95.0795 17.6281L95.1752 17.4401C95.2565 17.5192 95.3654 17.5863 95.5017 17.6413C95.6403 17.694 95.7854 17.7204 95.9371 17.7204C96.0823 17.7204 96.1999 17.7028 96.2901 17.6677C96.3824 17.6303 96.4495 17.5808 96.4913 17.5192C96.5353 17.4576 96.5573 17.3895 96.5573 17.3147C96.5573 17.2246 96.5309 17.152 96.4781 17.097C96.4275 17.042 96.3604 16.9992 96.2769 16.9684C96.1933 16.9354 96.101 16.9068 95.9998 16.8826C95.8987 16.8584 95.7975 16.8331 95.6963 16.8067C95.5952 16.7782 95.5017 16.7408 95.416 16.6946C95.3324 16.6484 95.2642 16.5879 95.2115 16.5132C95.1609 16.4362 95.1356 16.3362 95.1356 16.213C95.1356 16.0987 95.1653 15.9942 95.2247 15.8996C95.2862 15.8029 95.3797 15.7259 95.505 15.6687C95.6304 15.6094 95.7909 15.5797 95.9866 15.5797C96.1164 15.5797 96.245 15.5984 96.3725 15.6358C96.5001 15.6709 96.61 15.7204 96.7024 15.7842L96.6199 15.9788C96.521 15.9128 96.4154 15.8645 96.3033 15.8337C96.1933 15.8029 96.0867 15.7875 95.9833 15.7875C95.8448 15.7875 95.7304 15.8062 95.6403 15.8436C95.5501 15.881 95.483 15.9315 95.4391 15.9953C95.3973 16.0569 95.3764 16.1272 95.3764 16.2064C95.3764 16.2966 95.4017 16.3691 95.4523 16.4241C95.505 16.4791 95.5732 16.522 95.6568 16.5528C95.7425 16.5835 95.836 16.611 95.9371 16.6352C96.0383 16.6594 96.1383 16.6858 96.2373 16.7144C96.3385 16.743 96.4308 16.7804 96.5144 16.8265C96.6001 16.8705 96.6683 16.9299 96.7189 17.0047C96.7717 17.0794 96.798 17.1773 96.798 17.2982C96.798 17.4104 96.7673 17.5148 96.7057 17.6116C96.6441 17.7061 96.5496 17.7831 96.422 17.8425C96.2967 17.8997 96.135 17.9282 95.9371 17.9282Z" fill="#F4863B" fill-opacity="0.6"/>
<rect x="0.0649064" y="0.0646623" width="34.0242" height="18.8229" stroke="#F4863B" stroke-width="0.129813"/>
<path d="M5.22889 13.4761L2.50431 5.39469H3.38171L5.93312 13.0027H5.49442L8.12664 5.39469H8.91169L11.5093 13.0027H11.0937L13.6682 5.39469H14.4878L11.7633 13.4761H10.8628L8.38063 6.26055H8.61152L6.11784 13.4761H5.22889ZM16.8162 9.00822H21.0878V9.73555H16.8162V9.00822ZM16.9086 12.7372H21.7689V13.4761H16.0542V5.39469H21.5958V6.13356H16.9086V12.7372ZM23.7771 13.4761V5.39469H27.2636C28.1641 5.39469 28.8607 5.57556 29.3533 5.9373C29.8535 6.29904 30.1037 6.81086 30.1037 7.47276C30.1037 7.91146 29.9998 8.2809 29.792 8.58107C29.5919 8.88123 29.3148 9.10828 28.9607 9.26221C28.6144 9.41614 28.2334 9.49311 27.8178 9.49311L28.0141 9.21603C28.5297 9.21603 28.9723 9.29684 29.3417 9.45847C29.7188 9.6124 30.0113 9.84715 30.2191 10.1627C30.4269 10.4706 30.5308 10.8554 30.5308 11.3172C30.5308 12.0022 30.2768 12.5332 29.7689 12.9104C29.2686 13.2875 28.5105 13.4761 27.4945 13.4761H23.7771ZM24.6314 12.7718H27.483C28.1911 12.7718 28.7337 12.6525 29.1108 12.4139C29.4879 12.1677 29.6765 11.779 29.6765 11.2479C29.6765 10.7246 29.4879 10.3436 29.1108 10.105C28.7337 9.85869 28.1911 9.73555 27.483 9.73555H24.5391V9.03131H27.2059C27.8524 9.03131 28.3527 8.90817 28.7067 8.66188C29.0685 8.41559 29.2494 8.05 29.2494 7.56512C29.2494 7.07254 29.0685 6.70695 28.7067 6.46836C28.3527 6.22207 27.8524 6.09893 27.2059 6.09893H24.6314V12.7718Z" fill="#F4863B"/>
</svg>
