<svg width="200" height="33" viewBox="0 0 200 33" fill="none" xmlns="http://www.w3.org/2000/svg">
<path d="M67.7878 22.8079C66.6916 22.8079 65.6423 22.6542 64.6397 22.3468C63.6371 22.0259 62.8417 21.6182 62.2536 21.1236L63.1559 19.0984C63.7173 19.5395 64.4124 19.9071 65.2412 20.2012C66.07 20.4953 66.9189 20.6424 67.7878 20.6424C68.523 20.6424 69.1179 20.5622 69.5724 20.4018C70.0269 20.2413 70.3611 20.0275 70.5749 19.7601C70.7888 19.4794 70.8958 19.1652 70.8958 18.8177C70.8958 18.3899 70.742 18.049 70.4346 17.7951C70.1271 17.5277 69.7261 17.3205 69.2315 17.1735C68.7503 17.013 68.2089 16.866 67.6073 16.7323C67.0191 16.5986 66.4243 16.4449 65.8227 16.2711C65.2346 16.084 64.6932 15.8501 64.1986 15.5693C63.7173 15.2752 63.323 14.8876 63.0155 14.4063C62.7081 13.9251 62.5543 13.3102 62.5543 12.5616C62.5543 11.7996 62.7548 11.1045 63.1559 10.4762C63.5703 9.8346 64.1919 9.32663 65.0207 8.95233C65.8628 8.56467 66.9256 8.37084 68.2089 8.37084C69.051 8.37084 69.8865 8.47778 70.7153 8.69166C71.5441 8.90554 72.266 9.213 72.8809 9.61403L72.0588 11.6392C71.4305 11.2649 70.7821 10.9909 70.1138 10.8171C69.4454 10.63 68.8037 10.5364 68.1888 10.5364C67.467 10.5364 66.8788 10.6233 66.4243 10.7971C65.9831 10.9709 65.6556 11.1981 65.4418 11.4788C65.2412 11.7595 65.141 12.0804 65.141 12.4413C65.141 12.8691 65.288 13.2166 65.5821 13.484C65.8896 13.738 66.2839 13.9385 66.7652 14.0855C67.2598 14.2326 67.8078 14.3796 68.4094 14.5267C69.0109 14.6603 69.6058 14.8141 70.194 14.9878C70.7955 15.1616 71.3369 15.3889 71.8181 15.6696C72.3127 15.9503 72.7071 16.3313 73.0012 16.8125C73.3086 17.2938 73.4624 17.902 73.4624 18.6372C73.4624 19.3858 73.2552 20.0809 72.8408 20.7226C72.4397 21.3509 71.8181 21.8588 70.976 22.2465C70.1338 22.6208 69.0711 22.8079 67.7878 22.8079ZM82.624 22.8079C81.5279 22.8079 80.5186 22.6275 79.5963 22.2665C78.6739 21.9056 77.8718 21.4043 77.1901 20.7627C76.5083 20.1077 75.9803 19.3457 75.606 18.4768C75.2317 17.5945 75.0446 16.6321 75.0446 15.5894C75.0446 14.5467 75.2317 13.5909 75.606 12.722C75.9803 11.8398 76.5083 11.0778 77.1901 10.4361C77.8718 9.78113 78.6739 9.27316 79.5963 8.91223C80.5186 8.5513 81.5212 8.37084 82.604 8.37084C83.7001 8.37084 84.7027 8.5513 85.6117 8.91223C86.5341 9.27316 87.3361 9.78113 88.0179 10.4361C88.6996 11.0778 89.2277 11.8398 89.602 12.722C89.9763 13.5909 90.1634 14.5467 90.1634 15.5894C90.1634 16.6321 89.9763 17.5945 89.602 18.4768C89.2277 19.3591 88.6996 20.121 88.0179 20.7627C87.3361 21.4043 86.5341 21.9056 85.6117 22.2665C84.7027 22.6275 83.7068 22.8079 82.624 22.8079ZM82.604 20.5221C83.3125 20.5221 83.9675 20.4018 84.569 20.1611C85.1706 19.9205 85.6919 19.5796 86.1331 19.1385C86.5742 18.684 86.9151 18.1627 87.1557 17.5745C87.4097 16.9729 87.5367 16.3112 87.5367 15.5894C87.5367 14.8675 87.4097 14.2125 87.1557 13.6243C86.9151 13.0228 86.5742 12.5015 86.1331 12.0603C85.6919 11.6058 85.1706 11.2583 84.569 11.0176C83.9675 10.777 83.3125 10.6567 82.604 10.6567C81.8955 10.6567 81.2405 10.777 80.6389 11.0176C80.0508 11.2583 79.5294 11.6058 79.0749 12.0603C78.6338 12.5015 78.2862 13.0228 78.0322 13.6243C77.7916 14.2125 77.6713 14.8675 77.6713 15.5894C77.6713 16.2979 77.7916 16.9529 78.0322 17.5544C78.2862 18.156 78.6338 18.684 79.0749 19.1385C79.516 19.5796 80.0374 19.9205 80.6389 20.1611C81.2405 20.4018 81.8955 20.5221 82.604 20.5221ZM92.9264 22.6074V8.57135H95.5331V20.4018H102.872V22.6074H92.9264ZM110.77 22.8079C108.845 22.8079 107.334 22.2665 106.238 21.1838C105.155 20.101 104.614 18.537 104.614 16.4917V8.57135H107.221V16.3914C107.221 17.8352 107.528 18.8845 108.143 19.5395C108.771 20.1946 109.653 20.5221 110.79 20.5221C111.926 20.5221 112.802 20.1946 113.416 19.5395C114.031 18.8845 114.339 17.8352 114.339 16.3914V8.57135H116.905V16.4917C116.905 18.537 116.357 20.101 115.261 21.1838C114.178 22.2665 112.681 22.8079 110.77 22.8079ZM123.149 22.6074V10.777H118.497V8.57135H130.407V10.777H125.755V22.6074H123.149ZM132.364 22.6074V8.57135H134.97V22.6074H132.364ZM145.344 22.8079C144.248 22.8079 143.238 22.6275 142.316 22.2665C141.394 21.9056 140.592 21.4043 139.91 20.7627C139.228 20.1077 138.7 19.3457 138.326 18.4768C137.951 17.5945 137.764 16.6321 137.764 15.5894C137.764 14.5467 137.951 13.5909 138.326 12.722C138.7 11.8398 139.228 11.0778 139.91 10.4361C140.592 9.78113 141.394 9.27316 142.316 8.91223C143.238 8.5513 144.241 8.37084 145.324 8.37084C146.42 8.37084 147.422 8.5513 148.331 8.91223C149.254 9.27316 150.056 9.78113 150.738 10.4361C151.419 11.0778 151.947 11.8398 152.322 12.722C152.696 13.5909 152.883 14.5467 152.883 15.5894C152.883 16.6321 152.696 17.5945 152.322 18.4768C151.947 19.3591 151.419 20.121 150.738 20.7627C150.056 21.4043 149.254 21.9056 148.331 22.2665C147.422 22.6275 146.427 22.8079 145.344 22.8079ZM145.324 20.5221C146.032 20.5221 146.687 20.4018 147.289 20.1611C147.89 19.9205 148.412 19.5796 148.853 19.1385C149.294 18.684 149.635 18.1627 149.875 17.5745C150.129 16.9729 150.256 16.3112 150.256 15.5894C150.256 14.8675 150.129 14.2125 149.875 13.6243C149.635 13.0228 149.294 12.5015 148.853 12.0603C148.412 11.6058 147.89 11.2583 147.289 11.0176C146.687 10.777 146.032 10.6567 145.324 10.6567C144.615 10.6567 143.96 10.777 143.359 11.0176C142.771 11.2583 142.249 11.6058 141.795 12.0603C141.354 12.5015 141.006 13.0228 140.752 13.6243C140.511 14.2125 140.391 14.8675 140.391 15.5894C140.391 16.2979 140.511 16.9529 140.752 17.5544C141.006 18.156 141.354 18.684 141.795 19.1385C142.236 19.5796 142.757 19.9205 143.359 20.1611C143.96 20.4018 144.615 20.5221 145.324 20.5221ZM155.646 22.6074V8.57135H157.792L166.594 19.3791H165.532V8.57135H168.118V22.6074H165.973L157.17 11.7996H158.233V22.6074H155.646Z" fill="#F4863B"/>
<path d="M62.984 31.5781V27.9345H61.5747V27.5678H64.8173V27.9345H63.408V31.5781H62.984ZM71.3152 29.361H73.435V29.7219H71.3152V29.361ZM71.3611 31.2115H73.773V31.5781H70.9371V27.5678H73.687V27.9345H71.3611V31.2115ZM81.9425 31.6125C81.6408 31.6125 81.362 31.5628 81.1061 31.4635C80.8502 31.3604 80.6287 31.2172 80.4415 31.0339C80.2544 30.8505 80.1073 30.6347 80.0004 30.3865C79.8972 30.1382 79.8457 29.8671 79.8457 29.573C79.8457 29.2789 79.8972 29.0077 80.0004 28.7595C80.1073 28.5112 80.2544 28.2954 80.4415 28.1121C80.6325 27.9287 80.8559 27.7874 81.1118 27.6881C81.3677 27.585 81.6465 27.5334 81.9482 27.5334C82.2385 27.5334 82.5116 27.5831 82.7675 27.6824C83.0234 27.7779 83.2392 27.923 83.4149 28.1178L83.1456 28.3871C82.9814 28.219 82.7999 28.0987 82.6013 28.0261C82.4027 27.9498 82.1889 27.9116 81.9597 27.9116C81.7191 27.9116 81.4956 27.9536 81.2894 28.0376C81.0832 28.1178 80.9036 28.2343 80.7509 28.3871C80.5981 28.536 80.4778 28.7117 80.3899 28.9141C80.3059 29.1127 80.2639 29.3324 80.2639 29.573C80.2639 29.8136 80.3059 30.0351 80.3899 30.2375C80.4778 30.4361 80.5981 30.6118 80.7509 30.7646C80.9036 30.9136 81.0832 31.03 81.2894 31.1141C81.4956 31.1943 81.7191 31.2344 81.9597 31.2344C82.1889 31.2344 82.4027 31.1962 82.6013 31.1198C82.7999 31.0434 82.9814 30.9212 83.1456 30.7531L83.4149 31.0224C83.2392 31.2172 83.0234 31.3642 82.7675 31.4635C82.5116 31.5628 82.2366 31.6125 81.9425 31.6125ZM92.6944 27.5678H93.1126V31.5781H92.6944V27.5678ZM90.1851 31.5781H89.7612V27.5678H90.1851V31.5781ZM92.7345 29.7277H90.1393V29.3553H92.7345V29.7277ZM99.8641 31.5781V27.5678H100.214L102.981 31.0511H102.797V27.5678H103.216V31.5781H102.866L100.105 28.0949H100.288V31.5781H99.8641ZM111.72 31.6125C111.418 31.6125 111.138 31.5628 110.878 31.4635C110.622 31.3604 110.399 31.2172 110.208 31.0339C110.021 30.8467 109.874 30.6309 109.767 30.3865C109.663 30.1382 109.612 29.8671 109.612 29.573C109.612 29.2789 109.663 29.0096 109.767 28.7652C109.874 28.5169 110.021 28.3011 110.208 28.1178C110.399 27.9307 110.622 27.7874 110.878 27.6881C111.134 27.585 111.415 27.5334 111.72 27.5334C112.022 27.5334 112.301 27.585 112.557 27.6881C112.813 27.7874 113.034 27.9287 113.221 28.1121C113.412 28.2954 113.559 28.5112 113.662 28.7595C113.769 29.0077 113.823 29.2789 113.823 29.573C113.823 29.8671 113.769 30.1382 113.662 30.3865C113.559 30.6347 113.412 30.8505 113.221 31.0339C113.034 31.2172 112.813 31.3604 112.557 31.4635C112.301 31.5628 112.022 31.6125 111.72 31.6125ZM111.72 31.2344C111.961 31.2344 112.182 31.1943 112.385 31.1141C112.591 31.03 112.769 30.9136 112.918 30.7646C113.07 30.6118 113.189 30.4361 113.273 30.2375C113.357 30.0351 113.399 29.8136 113.399 29.573C113.399 29.3324 113.357 29.1127 113.273 28.9141C113.189 28.7117 113.07 28.536 112.918 28.3871C112.769 28.2343 112.591 28.1178 112.385 28.0376C112.182 27.9536 111.961 27.9116 111.72 27.9116C111.48 27.9116 111.256 27.9536 111.05 28.0376C110.844 28.1178 110.664 28.2343 110.511 28.3871C110.362 28.536 110.244 28.7117 110.156 28.9141C110.072 29.1127 110.03 29.3324 110.03 29.573C110.03 29.8098 110.072 30.0294 110.156 30.2318C110.244 30.4342 110.362 30.6118 110.511 30.7646C110.664 30.9136 110.844 31.03 111.05 31.1141C111.256 31.1943 111.48 31.2344 111.72 31.2344ZM120.216 31.5781V27.5678H120.639V31.2115H122.885V31.5781H120.216ZM130.706 31.6125C130.405 31.6125 130.124 31.5628 129.864 31.4635C129.608 31.3604 129.385 31.2172 129.194 31.0339C129.007 30.8467 128.86 30.6309 128.753 30.3865C128.65 30.1382 128.598 29.8671 128.598 29.573C128.598 29.2789 128.65 29.0096 128.753 28.7652C128.86 28.5169 129.007 28.3011 129.194 28.1178C129.385 27.9307 129.608 27.7874 129.864 27.6881C130.12 27.585 130.401 27.5334 130.706 27.5334C131.008 27.5334 131.287 27.585 131.543 27.6881C131.799 27.7874 132.02 27.9287 132.207 28.1121C132.398 28.2954 132.545 28.5112 132.649 28.7595C132.756 29.0077 132.809 29.2789 132.809 29.573C132.809 29.8671 132.756 30.1382 132.649 30.3865C132.545 30.6347 132.398 30.8505 132.207 31.0339C132.02 31.2172 131.799 31.3604 131.543 31.4635C131.287 31.5628 131.008 31.6125 130.706 31.6125ZM130.706 31.2344C130.947 31.2344 131.169 31.1943 131.371 31.1141C131.577 31.03 131.755 30.9136 131.904 30.7646C132.057 30.6118 132.175 30.4361 132.259 30.2375C132.343 30.0351 132.385 29.8136 132.385 29.573C132.385 29.3324 132.343 29.1127 132.259 28.9141C132.175 28.7117 132.057 28.536 131.904 28.3871C131.755 28.2343 131.577 28.1178 131.371 28.0376C131.169 27.9536 130.947 27.9116 130.706 27.9116C130.466 27.9116 130.242 27.9536 130.036 28.0376C129.83 28.1178 129.65 28.2343 129.498 28.3871C129.349 28.536 129.23 28.7117 129.142 28.9141C129.058 29.1127 129.016 29.3324 129.016 29.573C129.016 29.8098 129.058 30.0294 129.142 30.2318C129.23 30.4342 129.349 30.6118 129.498 30.7646C129.65 30.9136 129.83 31.03 130.036 31.1141C130.242 31.1943 130.466 31.2344 130.706 31.2344ZM140.961 31.6125C140.655 31.6125 140.372 31.5628 140.113 31.4635C139.857 31.3604 139.633 31.2172 139.442 31.0339C139.255 30.8505 139.108 30.6347 139.001 30.3865C138.898 30.1382 138.847 29.8671 138.847 29.573C138.847 29.2789 138.898 29.0077 139.001 28.7595C139.108 28.5112 139.257 28.2954 139.448 28.1121C139.639 27.9287 139.863 27.7874 140.118 27.6881C140.378 27.585 140.661 27.5334 140.966 27.5334C141.272 27.5334 141.551 27.5812 141.803 27.6767C142.059 27.7722 142.276 27.9173 142.456 28.1121L142.192 28.3813C142.024 28.2133 141.839 28.093 141.637 28.0204C141.434 27.9478 141.217 27.9116 140.984 27.9116C140.735 27.9116 140.506 27.9536 140.296 28.0376C140.09 28.1178 139.908 28.2343 139.752 28.3871C139.599 28.536 139.479 28.7117 139.391 28.9141C139.307 29.1127 139.265 29.3324 139.265 29.573C139.265 29.8098 139.307 30.0294 139.391 30.2318C139.479 30.4342 139.599 30.6118 139.752 30.7646C139.908 30.9136 140.09 31.03 140.296 31.1141C140.506 31.1943 140.733 31.2344 140.978 31.2344C141.207 31.2344 141.423 31.2 141.625 31.1313C141.831 31.0625 142.021 30.946 142.192 30.7818L142.433 31.1026C142.242 31.2707 142.019 31.3986 141.763 31.4865C141.507 31.5705 141.239 31.6125 140.961 31.6125ZM142.026 31.0511V29.573H142.433V31.1026L142.026 31.0511ZM149.075 31.5781V27.5678H149.499V31.5781H149.075ZM156.625 29.361H158.745V29.7219H156.625V29.361ZM156.671 31.2115H159.083V31.5781H156.247V27.5678H158.997V27.9345H156.671V31.2115ZM166.627 31.6125C166.329 31.6125 166.043 31.5648 165.768 31.4693C165.497 31.37 165.287 31.2439 165.138 31.0912L165.304 30.7646C165.445 30.9021 165.634 31.0186 165.871 31.1141C166.112 31.2057 166.364 31.2516 166.627 31.2516C166.879 31.2516 167.084 31.221 167.24 31.1599C167.401 31.095 167.517 31.009 167.59 30.9021C167.666 30.7952 167.704 30.6768 167.704 30.5469C167.704 30.3903 167.659 30.2643 167.567 30.1688C167.479 30.0733 167.363 29.9988 167.217 29.9454C167.072 29.8881 166.912 29.8384 166.736 29.7964C166.561 29.7544 166.385 29.7105 166.209 29.6646C166.033 29.615 165.871 29.5501 165.722 29.4698C165.577 29.3896 165.459 29.2846 165.367 29.1548C165.279 29.0211 165.235 28.8473 165.235 28.6334C165.235 28.4348 165.287 28.2534 165.39 28.0892C165.497 27.9211 165.659 27.7874 165.877 27.6881C166.095 27.585 166.373 27.5334 166.713 27.5334C166.939 27.5334 167.162 27.5659 167.384 27.6308C167.605 27.6919 167.796 27.7779 167.957 27.8886L167.813 28.2267C167.641 28.1121 167.458 28.028 167.263 27.9746C167.072 27.9211 166.887 27.8944 166.708 27.8944C166.467 27.8944 166.268 27.9268 166.112 27.9918C165.955 28.0567 165.839 28.1445 165.762 28.2553C165.69 28.3622 165.653 28.4845 165.653 28.622C165.653 28.7785 165.697 28.9046 165.785 29.0001C165.877 29.0956 165.995 29.17 166.14 29.2235C166.289 29.277 166.452 29.3247 166.627 29.3667C166.803 29.4087 166.977 29.4546 167.149 29.5042C167.324 29.5539 167.485 29.6188 167.63 29.699C167.779 29.7754 167.897 29.8785 167.985 30.0084C168.077 30.1382 168.123 30.3082 168.123 30.5183C168.123 30.713 168.069 30.8945 167.962 31.0625C167.855 31.2267 167.691 31.3604 167.47 31.4635C167.252 31.5628 166.971 31.6125 166.627 31.6125Z" fill="#F4863B" fill-opacity="0.6"/>
<rect x="0.112732" y="0.112732" width="57.9894" height="32.6923" stroke="#F4863B" stroke-width="0.225464"/>
<path d="M9.08149 23.459L4.34933 9.42291H5.87324L10.3046 22.6369H9.54267L14.1144 9.42291H15.4779L19.9895 22.6369H19.2677L23.7392 9.42291H25.1628L20.4307 23.459H18.8666L14.5556 10.9268H14.9566L10.6255 23.459H9.08149ZM29.2068 15.699H36.6259V16.9623H29.2068V15.699ZM29.3672 22.1757H37.8089V23.459H27.8834V9.42291H37.5081V10.7062H29.3672V22.1757ZM41.2968 23.459V9.42291H47.3523C48.9164 9.42291 50.1261 9.73706 50.9817 10.3653C51.8506 10.9936 52.285 11.8826 52.285 13.0322C52.285 13.7941 52.1045 14.4358 51.7436 14.9571C51.3961 15.4785 50.9148 15.8728 50.2999 16.1402C49.6984 16.4075 49.0367 16.5412 48.3148 16.5412L48.6557 16.06C49.5513 16.06 50.32 16.2003 50.9616 16.4811C51.6166 16.7484 52.1246 17.1561 52.4855 17.7042C52.8465 18.2389 53.0269 18.9073 53.0269 19.7093C53.0269 20.8991 52.5858 21.8214 51.7035 22.4765C50.8346 23.1315 49.5179 23.459 47.7534 23.459H41.2968ZM42.7806 22.2358H47.7333C48.9631 22.2358 49.9056 22.0286 50.5606 21.6142C51.2156 21.1865 51.5431 20.5114 51.5431 19.589C51.5431 18.68 51.2156 18.0183 50.5606 17.6039C49.9056 17.1762 48.9631 16.9623 47.7333 16.9623H42.6202V15.7391H47.2521C48.375 15.7391 49.2439 15.5253 49.8588 15.0975C50.4871 14.6697 50.8012 14.0348 50.8012 13.1926C50.8012 12.3371 50.4871 11.7021 49.8588 11.2877C49.2439 10.8599 48.375 10.6461 47.2521 10.6461H42.7806V22.2358Z" fill="#F4863B"/>
</svg>
